<svg xmlns="http://www.w3.org/2000/svg" xmlns:xlink="http://www.w3.org/1999/xlink" width="473" height="284"><defs/><defs><circle id="f" cx="435" cy="142" r="20"/><circle id="e" cx="20" cy="142" r="20"/><circle id="c" cx="90" cy="90" r="90"/><circle id="h" cx="89" cy="142" r="32"/><circle id="i" cx="366" cy="142" r="32"/><circle id="j" cx="8.582" cy="8.138" r="8"/><filter id="b" width="127.8%" height="133.3%" x="-13.9%" y="-8.3%"><feMorphology in="SourceAlpha" radius="5"/><feOffset dy="20"/><feGaussianBlur stdDeviation="10"/><feColorMatrix values="0 0 0 0 0.839215686 0 0 0 0 0.847058824 0 0 0 0 0.862745098 0 0 0 1 0"/></filter><filter id="d" width="225%" height="265%" x="-62.5%" y="-52.5%"><feMorphology in="SourceAlpha" radius="5"/><feOffset dy="20"/><feGaussianBlur stdDeviation="10"/><feColorMatrix result="D" values="0 0 0 0 0.839215686 0 0 0 0 0.847058824 0 0 0 0 0.862745098 0 0 0 1 0"/><feMorphology in="SourceAlpha" radius="5"/><feOffset dy="-6"/><feGaussianBlur stdDeviation="5"/><feColorMatrix result="H" values="0 0 0 0 0.839215686 0 0 0 0 0.847058824 0 0 0 0 0.862745098 0 0 0 1 0"/><feMerge><feMergeNode in="D"/><feMergeNode in="H"/></feMerge></filter><filter id="g" width="178.1%" height="203.1%" x="-39.1%" y="-32.8%"><feMorphology in="SourceAlpha" radius="5"/><feOffset dy="20"/><feGaussianBlur stdDeviation="10"/><feColorMatrix result="D" values="0 0 0 0 0.839215686 0 0 0 0 0.847058824 0 0 0 0 0.862745098 0 0 0 1 0"/><feMorphology in="SourceAlpha" radius="5"/><feOffset dy="-6"/><feGaussianBlur stdDeviation="5"/><feColorMatrix result="H" values="0 0 0 0 0.839215686 0 0 0 0 0.847058824 0 0 0 0 0.862745098 0 0 0 1 0"/><feMerge><feMergeNode in="D"/><feMergeNode in="H"/></feMerge></filter><radialGradient id="a" cy="50.249%" r="49.751%" fx="50%" fy="50.249%"><stop offset=".071%" stop-color="#f5f6f8"/><stop offset="100%" stop-color="#ebedf1"/></radialGradient><path id="l" d="M13.176.115a1.33 1.33 0 011.14.643l.053.094L16 4.115v5.333c0 .703-.544 1.28-1.234 1.33l-.1.004H1.334a1.333 1.333 0 01-1.33-1.234L0 9.448V4.115L1.63.852c.2-.42.623-.695 1.086-.733l.107-.004h10.352z"/></defs><g fill="none" fill-rule="evenodd" transform="translate(9)"><circle cx="228" cy="142" r="142" fill="url(#a)" opacity=".5"/><g transform="translate(138 52)"><use fill="#000" filter="url(#b)" xlink:href="#c"/><use fill="#fff" xlink:href="#c"/></g><path fill="#373b42" d="M187.5 173.25c-5.978-8.32-9.5-18.538-9.5-29.578 0-27.847 22.4-50.422 50-50.422s50 22.575 50 50.38c0 11.04-3.522 21.256-9.5 29.578l-23.997-39.3-2.334 3.955 2.334 10.958L228 120.356l-10.238 17.425 2.376 11.082-8.64-14.913-23.998 39.3z"/><use fill="#000" filter="url(#d)" xlink:href="#e"/><use fill="#fff" xlink:href="#e"/><use fill="#000" filter="url(#d)" xlink:href="#f"/><use fill="#fff" xlink:href="#f"/><use fill="#000" filter="url(#g)" xlink:href="#h"/><use fill="#fff" xlink:href="#h"/><use fill="#000" filter="url(#g)" xlink:href="#i"/><use fill="#fff" xlink:href="#i"/><g fill-rule="nonzero"><path fill="#e9ebee" d="M89.145 129.046l9.75 2.93c.458.138.772.56.772 1.04v8.508a13.03 13.03 0 01-7.187 11.65L88.833 155l-3.647-1.827A13.026 13.026 0 0178 141.524v-8.508c0-.48.314-.902.772-1.04l9.75-2.93a1.1 1.1 0 01.623 0z"/><path fill="#c6cad1" d="M91.317 139.038l1.532 1.535-5.1 5.1-2.933-2.938 1.532-1.535 1.4 1.402zM366.208 129c3.18 0 5.756 2.53 5.756 5.652v4.522c0 1.25-1.03 2.26-2.303 2.26h-6.906c-1.27 0-2.302-1-2.302-2.26v-4.522c0-3.12 2.577-5.652 5.755-5.652zm0 2.26c-1.84 0-3.342 1.413-3.447 3.193l-.006.2v4.52h6.906v-4.52c0-1.874-1.546-3.392-3.453-3.392z"/><path fill="#e9ebee" d="M373.115 139.174c1.27 0 2.302 1.012 2.302 2.26v11.305c0 1.25-1.03 2.26-2.302 2.26h-13.813c-1.27 0-2.302-1.012-2.302-2.26v-11.305c0-1.25 1.03-2.26 2.302-2.26h13.813z"/></g><path fill="#c6cad1" d="M366.208 143.696c1.272 0 2.302 1.012 2.302 2.26 0 .837-.462 1.567-1.15 1.958v1.564a1 1 0 01-1 1h-.303a1 1 0 01-1-1v-1.563a2.253 2.253 0 01-1.15-1.958c0-1.25 1.03-2.26 2.3-2.26z"/><g transform="translate(11.418 133.862)"><mask id="k" fill="#fff"><use xlink:href="#j"/></mask><use fill="#e9ebee" xlink:href="#j"/><path fill="#c6cad1" d="M9.3-.313c0 .754.156 1.943.47 3.568a1 1 0 01-.92 1.187l-2.72.17a1 1 0 00-.423.123L.36 7.702 0 4.002 4.183-.313C7.6-1.23 9.31-1.23 9.31-.313zM16.582 11.1l-3.04-4.302a1 1 0 00-1.417-.222l-1.04.783a1 1 0 01-.24.133l-1.936.753a1 1 0 00-.26 1.716l1.32 1.044a1 1 0 01.209 1.341L6.924 17.18l6.473-1.042 3.185-5.048z" mask="url(#k)"/></g><g transform="translate(427 136.885)"><mask id="m" fill="#fff"><use xlink:href="#l"/></mask><use fill="#e9ebee" fill-rule="nonzero" xlink:href="#l"/><path fill="#c6cad1" d="M0 4.115h16V0H0z" mask="url(#m)"/></g><path fill="#c6cad1" d="M436.333 143h1.333v2.667h-1.333zm2.667 0h1.333v2.667H439z"/></g></svg>