<svg width="85" height="38" viewBox="0 0 85 38" xmlns="http://www.w3.org/2000/svg"><path d="M67.78 28.757c-2.634 0-5.833-1.284-9.408-3.654L50 18.486l8.372-6.616c3.575-2.37 6.774-3.654 9.408-3.654 5.833 0 9.22 6.42 9.22 10.27 0 3.852-3.387 10.27-9.22 10.27zm-41.153-3.654c-3.575 2.37-6.773 3.654-9.407 3.654-5.833 0-9.22-6.42-9.22-10.27 0-3.852 3.387-10.27 9.22-10.27 2.634 0 5.832 1.283 9.407 3.653L35 18.486l-8.373 6.617zM67.34.098c-4.345 0-9.067 1.665-14.071 5.093L42.5 13.515 32.017 5.29l-.284-.196C26.728 1.665 22.006 0 17.661 0 7.272.098 0 9.598 0 19s7.272 18.902 17.661 18.902c4.345 0 9.067-1.665 14.072-5.093L42.5 24.485l10.483 8.226.285.196C58.272 36.335 62.994 38 67.338 38 77.729 38 85 28.5 85 19.098c0-9.5-7.272-19-17.661-19z" fill="#FFF" fill-rule="evenodd"/></svg>